<svg width="40" height="38" viewBox="0 0 40 38" fill="none" xmlns="http://www.w3.org/2000/svg">
<path d="M40 19C40 24.0391 37.8929 28.8718 34.1421 32.435C30.3914 35.9982 25.3043 38 20 38C14.6957 38 9.60859 35.9982 5.85786 32.435C2.10714 28.8718 0 24.0391 0 19C0 13.9609 2.10714 9.12816 5.85786 5.56497C9.60859 2.00178 14.6957 0 20 0C25.3043 0 30.3914 2.00178 34.1421 5.56497C37.8929 9.12816 40 13.9609 40 19V19ZM21.25 10.6875C21.25 10.3726 21.1183 10.0705 20.8839 9.84781C20.6495 9.62511 20.3315 9.5 20 9.5C19.6685 9.5 19.3505 9.62511 19.1161 9.84781C18.8817 10.0705 18.75 10.3726 18.75 10.6875V24.4459L13.385 19.3467C13.1503 19.1238 12.8319 18.9985 12.5 18.9985C12.1681 18.9985 11.8497 19.1238 11.615 19.3467C11.3803 19.5697 11.2484 19.8722 11.2484 20.1875C11.2484 20.5028 11.3803 20.8053 11.615 21.0283L19.115 28.1533C19.2311 28.2638 19.3691 28.3516 19.5209 28.4114C19.6728 28.4713 19.8356 28.5021 20 28.5021C20.1644 28.5021 20.3272 28.4713 20.4791 28.4114C20.6309 28.3516 20.7689 28.2638 20.885 28.1533L28.385 21.0283C28.6197 20.8053 28.7516 20.5028 28.7516 20.1875C28.7516 19.8722 28.6197 19.5697 28.385 19.3467C28.1503 19.1238 27.8319 18.9985 27.5 18.9985C27.1681 18.9985 26.8497 19.1238 26.615 19.3467L21.25 24.4459V10.6875Z" fill="#FDB44B"/>
</svg>
