<?xml version="1.0" encoding="UTF-8" standalone="no"?>
<!-- Created with Inkscape (http://www.inkscape.org/) -->

<svg
   version="1.1"
   id="svg9"
   xml:space="preserve"
   width="250"
   height="330"
   viewBox="0 0 250 330"
   sodipodi:docname="subRiverLogo.svg"
   inkscape:version="1.1.1 (c3084ef, 2021-09-22)"
   xmlns:inkscape="http://www.inkscape.org/namespaces/inkscape"
   xmlns:sodipodi="http://sodipodi.sourceforge.net/DTD/sodipodi-0.dtd"
   xmlns="http://www.w3.org/2000/svg"
   xmlns:svg="http://www.w3.org/2000/svg"><defs
     id="defs13"><clipPath
       clipPathUnits="userSpaceOnUse"
       id="clipPath23"><path
         d="M 0,0 H 1562.5 V 1593.75 H 0 Z"
         clip-rule="evenodd"
         id="path21" /></clipPath><clipPath
       clipPathUnits="userSpaceOnUse"
       id="clipPath37"><path
         d="M 0,0 H 1562.5 V 1562.5 H 0 Z"
         clip-rule="evenodd"
         id="path35" /></clipPath><clipPath
       clipPathUnits="userSpaceOnUse"
       id="clipPath49"><path
         d="M 0,0 H 1562.5 V 1562.5 H 0 Z"
         clip-rule="evenodd"
         id="path47" /></clipPath><clipPath
       clipPathUnits="userSpaceOnUse"
       id="clipPath61"><path
         d="m 276.03052,516.8175 h 368.75 v 481.25 h -368.75 z"
         clip-rule="evenodd"
         id="path59" /></clipPath><clipPath
       clipPathUnits="userSpaceOnUse"
       id="clipPath77"><path
         d="M 0,0 H 1562.5 V 1562.5 H 0 Z"
         clip-rule="evenodd"
         id="path75" /></clipPath></defs><sodipodi:namedview
     id="namedview11"
     pagecolor="#505050"
     bordercolor="#eeeeee"
     borderopacity="1"
     inkscape:pageshadow="0"
     inkscape:pageopacity="0"
     inkscape:pagecheckerboard="0"
     showgrid="false"
     width="499px"
     inkscape:zoom="0.502"
     inkscape:cx="618.5259"
     inkscape:cy="250"
     inkscape:window-width="1280"
     inkscape:window-height="701"
     inkscape:window-x="0"
     inkscape:window-y="23"
     inkscape:window-maximized="1"
     inkscape:current-layer="g15" /><g
     id="g15"
     inkscape:groupmode="layer"
     inkscape:label="pdf_20220701_101531_0000"
     transform="matrix(0.31999998,0,0,0.31999998,0,9.434666e-6)"><g
       id="g43" /><g
       id="g55"
       transform="matrix(1.9653156,0,0,2.0218865,-516.00753,-1013.7115)"><g
         id="g57"
         clip-path="url(#clipPath61)"><g
           id="g63"
           transform="matrix(13.99239,0,0,13.977636,276.68546,516.8175)"><path
             d="M 1.5499999,27.76 C 7.0900002,19.280001 17,23.6 22.759998,16.119999 c -2.78,9.549999 -14.8399998,5.799999 -20.6599995,13.65 1.1100001,1.53 2.6100001,2.789999 4.3200001,3.609998 0.5900002,0.279999 1.2000003,0.509999 1.8399997,0.680001 0.01,0 0.020001,0.01 0.03,0.01 0.8900003,0.240002 1.8199997,0.369999 2.7699997,0.369999 1.899999,0 3.71,-0.509999 5.299999,-1.400002 2.389999,-1.34 4.27,-3.549999 5.18,-6.17 -5.309999,1.09 -10.43,-2.370001 -19.43,2.9 10.17,-8.57 23.99,5.310001 24.149999,-19.520001 -3.2,11.119999 -21.7399992,-2.9999996 -24.7099985,17.510001 l 2.6e-6,7e-6 z"
             style="fill:#7ed957;fill-opacity:1;fill-rule:evenodd;stroke:none"
             id="path65" /><path
             d="M 2.1099999,29.77 C 10.58,25.380001 15.849999,28.6 21.540001,26.870001 c 0.26,-0.75 0.44,-1.530001 0.530001,-2.33 -0.3,0.229999 -0.620001,0.43 -0.950001,0.610001 -1.539999,0.819999 -3.34,1.059999 -5.280001,1.17 -2.52,0.139999 -5.28,0.05 -7.9999998,0.67 -1.9600001,0.45 -3.9000001,1.26 -5.7199998,2.799999 l -0.01,-0.02 z"
             style="fill:#38b6ff;fill-opacity:1;fill-rule:evenodd;stroke:none"
             id="path67" /><path
             d="m 1.5799999,24.1 c 1.1100002,-3.809999 3.23,-7.03 7.3800001,-8.46 1.42,-0.489999 2.91,-0.72 4.400001,-0.859999 1.88,-0.17 3.78,-0.16 5.659999,-0.34 0.25,-0.02 0.510001,-0.05 0.770001,-0.09 -2.6,-5.5799995 -6.71,-11.3399998 -8.73,-14.35999928 C 7.9700012,4.6100006 -0.00999832,15.630001 -0.00999832,22.650002 v 0.7 c 0,1.47 0.30000001,2.880001 0.85000002,4.180001 0.10000003,-0.65 0.21,-1.3 0.35,-1.940001 -0.54,-2.74 -0.03,-5.979999 1.52,-9.71 -0.79,3.070001 -1.1700001,5.81 -1.14,8.21 l 0.01,0.01 z"
             style="fill:#ffbd59;fill-opacity:1;fill-rule:evenodd;stroke:none"
             id="path69" /></g></g></g></g></svg>
